<svg width="19" height="18" viewBox="0 0 19 18" fill="none" xmlns="http://www.w3.org/2000/svg">
<mask id="mask0_22_246" style="mask-type:alpha" maskUnits="userSpaceOnUse" x="0" y="0" width="19" height="18">
<rect x="0.333313" width="18" height="18" fill="#D9D9D9"/>
</mask>
<g mask="url(#mask0_22_246)">
<path d="M6.37663 13.125C5.99775 13.125 5.67706 12.9938 5.41456 12.7313C5.15206 12.4688 5.02081 12.1481 5.02081 11.7692V3.23081C5.02081 2.85194 5.15206 2.53125 5.41456 2.26875C5.67706 2.00625 5.99775 1.875 6.37663 1.875H14.915C15.2939 1.875 15.6146 2.00625 15.8771 2.26875C16.1396 2.53125 16.2708 2.85194 16.2708 3.23081V11.7692C16.2708 12.1481 16.1396 12.4688 15.8771 12.7313C15.6146 12.9938 15.2939 13.125 14.915 13.125H6.37663ZM6.14581 4.5H15.1458V3.23081C15.1458 3.17306 15.1218 3.12019 15.0736 3.07219C15.0256 3.02406 14.9728 3 14.915 3H6.37663C6.31888 3 6.266 3.02406 6.218 3.07219C6.16988 3.12019 6.14581 3.17306 6.14581 3.23081V4.5ZM3.75163 15.75C3.37275 15.75 3.05206 15.6188 2.78956 15.3563C2.52706 15.0938 2.39581 14.7731 2.39581 14.3942V4.73081H3.52081V14.3942C3.52081 14.4519 3.54488 14.5048 3.593 14.5528C3.641 14.6009 3.69388 14.625 3.75163 14.625H13.415V15.75H3.75163Z" fill="url(#paint0_linear_22_246)"/>
</g>
<defs>
<linearGradient id="paint0_linear_22_246" x1="16.2708" y1="8.8125" x2="2.39581" y2="8.8125" gradientUnits="userSpaceOnUse">
<stop stop-color="#2948FF"/>
<stop offset="1" stop-color="#396AFC"/>
</linearGradient>
</defs>
</svg>
