<svg width="24" height="31" viewBox="0 0 24 31" fill="none" xmlns="http://www.w3.org/2000/svg">
<path d="M12 30.5768L1.8345 22.953C1.498 22.7067 1.23312 22.3904 1.03987 22.0039C0.846625 21.6174 0.75 21.2106 0.75 20.7836V3.46163C0.75 2.70387 1.0125 2.0625 1.5375 1.5375C2.0625 1.0125 2.70387 0.75 3.46163 0.75H20.5384C21.2961 0.75 21.9375 1.0125 22.4625 1.5375C22.9875 2.0625 23.25 2.70387 23.25 3.46163V20.7836C23.25 21.2106 23.1534 21.6174 22.9601 22.0039C22.7669 22.3904 22.502 22.7067 22.1655 22.953L12 30.5768ZM10.425 18.9806L18.3806 11.025L16.8 9.39825L10.425 15.7733L7.24613 12.5944L5.61938 14.175L10.425 18.9806Z" fill="url(#paint0_linear_92_139)"/>
<defs>
<linearGradient id="paint0_linear_92_139" x1="23.25" y1="15.6634" x2="0.75" y2="15.6634" gradientUnits="userSpaceOnUse">
<stop stop-color="#2948FF"/>
<stop offset="1" stop-color="#396AFC"/>
</linearGradient>
</defs>
</svg>
