<svg width="26" height="30" viewBox="0 0 26 30" fill="none" xmlns="http://www.w3.org/2000/svg">
<path d="M5.78837 21.4616H8.03838V3H5.78837V21.4616ZM4.17325 29.25C3.0835 29.25 2.15712 28.8686 1.39412 28.1059C0.631375 27.3429 0.25 26.4165 0.25 25.3268V4.67325C0.25 3.5835 0.631375 2.65713 1.39412 1.89413C2.15712 1.13138 3.0835 0.75 4.17325 0.75H20.2116V23.7116H4.17325C3.70975 23.7116 3.315 23.8689 2.989 24.1834C2.663 24.4981 2.5 24.8881 2.5 25.3534C2.5 25.8184 2.663 26.2091 2.989 26.5256C3.315 26.8419 3.70975 27 4.17325 27H23.5V3.75H25.75V29.25H4.17325Z" fill="white"/>
</svg>
