<svg width="30" height="27" viewBox="0 0 30 27" fill="none" xmlns="http://www.w3.org/2000/svg">
<path d="M8.25 5.75002V3.0384C8.25 2.2904 8.51488 1.65152 9.04463 1.12177C9.57463 0.592023 10.2136 0.327148 10.9616 0.327148H19.0384C19.7864 0.327148 20.4254 0.592023 20.9554 1.12177C21.4851 1.65152 21.75 2.2904 21.75 3.0384V5.75002H26.5384C27.2864 5.75002 27.9254 6.0149 28.4554 6.54465C28.9851 7.07465 29.25 7.71365 29.25 8.46165V24.0384C29.25 24.7864 28.9851 25.4254 28.4554 25.9554C27.9254 26.4851 27.2864 26.75 26.5384 26.75H3.46163C2.71362 26.75 2.07463 26.4851 1.54463 25.9554C1.01488 25.4254 0.75 24.7864 0.75 24.0384V8.46165C0.75 7.71365 1.01488 7.07465 1.54463 6.54465C2.07463 6.0149 2.71362 5.75002 3.46163 5.75002H8.25ZM10.5 5.75002H19.5V3.0384C19.5 2.9039 19.4567 2.7934 19.3703 2.7069C19.2838 2.6204 19.1731 2.57715 19.0384 2.57715H10.9616C10.8269 2.57715 10.7162 2.6204 10.6297 2.7069C10.5432 2.7934 10.5 2.9039 10.5 3.0384V5.75002ZM3 21.1828H27V17.3173H3V21.1828Z" fill="url(#paint0_linear_92_54)"/>
<defs>
<linearGradient id="paint0_linear_92_54" x1="29.25" y1="13.5386" x2="0.75" y2="13.5386" gradientUnits="userSpaceOnUse">
<stop stop-color="#2948FF"/>
<stop offset="1" stop-color="#396AFC"/>
</linearGradient>
</defs>
</svg>
