<svg width="30" height="30" viewBox="0 0 30 30" fill="none" xmlns="http://www.w3.org/2000/svg">
<path d="M13.875 22.125H16.125V13.5H13.875V22.125ZM15 10.9327C15.3433 10.9327 15.631 10.8166 15.8632 10.5844C16.0955 10.3521 16.2116 10.0644 16.2116 9.72112C16.2116 9.37787 16.0955 9.09013 15.8632 8.85788C15.631 8.62588 15.3433 8.50987 15 8.50987C14.6567 8.50987 14.369 8.62588 14.1368 8.85788C13.9045 9.09013 13.7884 9.37787 13.7884 9.72112C13.7884 10.0644 13.9045 10.3521 14.1368 10.5844C14.369 10.8166 14.6567 10.9327 15 10.9327ZM15.0026 29.25C13.0316 29.25 11.179 28.876 9.44475 28.128C7.7105 27.38 6.202 26.3649 4.91925 25.0826C3.6365 23.8004 2.62087 22.2925 1.87237 20.559C1.12412 18.8255 0.75 16.9734 0.75 15.0026C0.75 13.0316 1.124 11.179 1.872 9.44475C2.62 7.7105 3.63513 6.202 4.91738 4.91925C6.19963 3.6365 7.7075 2.62087 9.441 1.87237C11.1745 1.12412 13.0266 0.75 14.9974 0.75C16.9684 0.75 18.821 1.124 20.5553 1.872C22.2895 2.62 23.798 3.63513 25.0808 4.91738C26.3635 6.19963 27.3791 7.7075 28.1276 9.441C28.8759 11.1745 29.25 13.0266 29.25 14.9974C29.25 16.9684 28.876 18.821 28.128 20.5553C27.38 22.2895 26.3649 23.798 25.0826 25.0808C23.8004 26.3635 22.2925 27.3791 20.559 28.1276C18.8255 28.8759 16.9734 29.25 15.0026 29.25Z" fill="url(#paint0_linear_92_38)"/>
<defs>
<linearGradient id="paint0_linear_92_38" x1="29.25" y1="15" x2="0.75" y2="15" gradientUnits="userSpaceOnUse">
<stop stop-color="#2948FF"/>
<stop offset="1" stop-color="#396AFC"/>
</linearGradient>
</defs>
</svg>
