<svg width="19" height="18" viewBox="0 0 19 18" fill="none" xmlns="http://www.w3.org/2000/svg">
<mask id="mask0_22_230" style="mask-type:alpha" maskUnits="userSpaceOnUse" x="0" y="0" width="19" height="18">
<rect x="0.666656" width="18" height="18" fill="#D9D9D9"/>
</mask>
<g mask="url(#mask0_22_230)">
<path d="M3.89747 14.625C3.51859 14.625 3.19791 14.4938 2.93541 14.2313C2.67291 13.9688 2.54166 13.6481 2.54166 13.2692V4.73081C2.54166 4.35194 2.67291 4.03125 2.93541 3.76875C3.19791 3.50625 3.51859 3.375 3.89747 3.375H15.4358C15.8147 3.375 16.1354 3.50625 16.3979 3.76875C16.6604 4.03125 16.7917 4.35194 16.7917 4.73081V13.2692C16.7917 13.6481 16.6604 13.9688 16.3979 14.2313C16.1354 14.4938 15.8147 14.625 15.4358 14.625H3.89747ZM11.3542 10.3847H12.4792V8.8125H14.0513V7.6875H12.4792V6.11531H11.3542V7.6875H9.78197V8.8125H11.3542V10.3847Z" fill="url(#paint0_linear_22_230)"/>
</g>
<defs>
<linearGradient id="paint0_linear_22_230" x1="16.7917" y1="9" x2="2.54166" y2="9" gradientUnits="userSpaceOnUse">
<stop stop-color="#2948FF"/>
<stop offset="1" stop-color="#396AFC"/>
</linearGradient>
</defs>
</svg>
