<svg width="18" height="18" viewBox="0 0 18 18" fill="none" xmlns="http://www.w3.org/2000/svg">
<mask id="mask0_22_225" style="mask-type:alpha" maskUnits="userSpaceOnUse" x="0" y="0" width="18" height="18">
<rect width="18" height="18" fill="#D9D9D9"/>
</mask>
<g mask="url(#mask0_22_225)">
<path d="M2.30625 8.19809L5.23988 5.26447C5.4005 5.10397 5.58756 4.98978 5.80106 4.9219C6.01444 4.85415 6.23413 4.84284 6.46013 4.88797L7.47844 5.10153C6.86106 5.84378 6.36706 6.5159 5.99644 7.1179C5.62581 7.71978 5.26163 8.44959 4.90388 9.30734L2.30625 8.19809ZM5.775 9.65909C6.08175 8.83121 6.47238 8.04496 6.94688 7.30034C7.42138 6.55559 7.97981 5.86209 8.62219 5.21984C9.64044 4.20159 10.7777 3.43978 12.0339 2.9344C13.2902 2.42915 14.5428 2.24672 15.7918 2.38709C15.9322 3.63609 15.7516 4.88871 15.2501 6.14496C14.7488 7.40122 13.9889 8.53847 12.9707 9.55672C12.3361 10.1913 11.6426 10.7486 10.8902 11.2285C10.1377 11.7082 9.3475 12.1015 8.51963 12.4082L5.775 9.65909ZM10.6759 7.49572C10.9298 7.74959 11.2396 7.87653 11.6055 7.87653C11.9714 7.87653 12.2813 7.74959 12.5351 7.49572C12.7889 7.24184 12.9158 6.93322 12.9158 6.56984C12.9158 6.20634 12.7889 5.89765 12.5351 5.64378C12.2813 5.3899 11.9714 5.26297 11.6055 5.26297C11.2396 5.26297 10.9298 5.3899 10.6759 5.64378C10.4221 5.89765 10.2953 6.20634 10.2953 6.56984C10.2953 6.93322 10.4221 7.24184 10.6759 7.49572ZM9.97781 15.8727L8.85713 13.275C9.71488 12.9173 10.4466 12.5519 11.0524 12.1789C11.6581 11.8058 12.3322 11.3106 13.0746 10.6933L13.2763 11.7115C13.3216 11.9375 13.3115 12.1592 13.2461 12.3765C13.1808 12.5938 13.0678 12.7827 12.9071 12.9433L9.97781 15.8727ZM3.4485 12.0735C3.814 11.7082 4.25756 11.5248 4.77919 11.5234C5.30081 11.5219 5.74431 11.7038 6.10969 12.0692C6.47506 12.4346 6.65775 12.8781 6.65775 13.3997C6.65775 13.9213 6.47506 14.3648 6.10969 14.7302C5.82594 15.014 5.3605 15.2575 4.71338 15.4607C4.06638 15.6641 3.23613 15.8268 2.22263 15.949C2.34475 14.9356 2.50869 14.1073 2.71444 13.464C2.92019 12.8208 3.16488 12.3573 3.4485 12.0735Z" fill="url(#paint0_linear_22_225)"/>
</g>
<defs>
<linearGradient id="paint0_linear_22_225" x1="15.8379" y1="9.14514" x2="2.22263" y2="9.14514" gradientUnits="userSpaceOnUse">
<stop stop-color="#2948FF"/>
<stop offset="1" stop-color="#396AFC"/>
</linearGradient>
</defs>
</svg>
