<svg width="20" height="19" viewBox="0 0 20 19" fill="none" xmlns="http://www.w3.org/2000/svg">
<path d="M14 8.8845C14.2448 8.8845 14.4535 8.79833 14.626 8.626C14.7983 8.4535 14.8845 8.24483 14.8845 8C14.8845 7.75517 14.7983 7.5465 14.626 7.374C14.4535 7.20167 14.2448 7.1155 14 7.1155C13.7552 7.1155 13.5465 7.20167 13.374 7.374C13.2017 7.5465 13.1155 7.75517 13.1155 8C13.1155 8.24483 13.2017 8.4535 13.374 8.626C13.5465 8.79833 13.7552 8.8845 14 8.8845ZM6 6.75H11V5.25H6V6.75ZM2.875 18.5C2.34683 16.6768 1.819 14.8628 1.2915 13.0577C0.763833 11.2526 0.5 9.4 0.5 7.5C0.5 6.10767 0.98525 4.92625 1.95575 3.95575C2.92625 2.98525 4.10767 2.5 5.5 2.5H10.75C11.2077 1.89867 11.7568 1.415 12.3973 1.049C13.0376 0.683001 13.7385 0.5 14.5 0.5C14.7757 0.5 15.0113 0.594583 15.2068 0.783749C15.4023 0.972749 15.5 1.20508 15.5 1.48075C15.5 1.58975 15.4648 1.74292 15.3943 1.94025C15.3148 2.18142 15.2426 2.42183 15.1777 2.6615C15.1131 2.90133 15.0577 3.14683 15.0115 3.398L17.6135 6H19.5V12.1095L16.771 13.0058L15.125 18.5H10.5V16.5H7.5V18.5H2.875Z" fill="url(#paint0_linear_2001_129)"/>
<defs>
<linearGradient id="paint0_linear_2001_129" x1="19.5" y1="9.5" x2="0.5" y2="9.5" gradientUnits="userSpaceOnUse">
<stop stop-color="#2948FF"/>
<stop offset="1" stop-color="#396AFC"/>
</linearGradient>
</defs>
</svg>
